<svg width="359" height="183" viewBox="0 0 359 183" fill="none" xmlns="http://www.w3.org/2000/svg">
<g clip-path="url(#clip0_18_4894)">
<path d="M289.63 153.19L263.87 92.9099C259.39 82.4199 249.11 75.6199 237.73 75.6199H185.95L130.41 87.6699C119.57 90.0199 110.35 97.1099 105.26 107L48.4901 218.61H272.85L289.63 153.19V153.19Z" fill="#FFC976"/>
<path d="M15.88 170.17V176.98C15.77 176.98 15.67 176.98 15.56 176.98C6.99004 176.98 0.0400391 183.89 0.0400391 192.43C0.0400391 200.97 6.99004 207.88 15.56 207.88C15.73 207.88 15.91 207.88 16.08 207.87C17.16 213.98 22.49 218.62 28.9 218.62H47.56C54.75 218.62 60.59 212.79 60.59 205.59V170.18H15.88V170.17ZM4.91004 192.42C4.91004 186.56 9.68004 181.81 15.56 181.81C15.67 181.81 15.77 181.81 15.88 181.81V203.01C15.77 203.01 15.67 203.01 15.56 203.01C9.67004 203.01 4.91004 198.26 4.91004 192.4V192.42Z" fill="#57C6CD"/>
<path d="M32.5901 192.08C32.4701 192.08 32.3801 191.98 32.3801 191.87V170.17C32.3801 170.05 32.4801 169.96 32.5901 169.96C32.7001 169.96 32.8001 170.06 32.8001 170.17V191.87C32.8001 191.99 32.7001 192.08 32.5901 192.08Z" fill="#000300"/>
<path d="M178.53 83.4799L162.81 54.7799L190.25 51.4199L201.34 84.6599L178.53 83.4799Z" fill="#D87159"/>
<path d="M209.59 18.9999C201.34 0.519913 180.5 -2.23009 165.16 2.21991C157.21 4.52991 150.64 13.5999 146.91 23.7199C146.9 23.7499 146.89 23.7799 146.88 23.8099L142.38 23.3299L144.26 31.3599C142.97 37.9899 143.26 45.4499 145.1 50.0599C150.6 63.8199 185.2 59.8899 185.2 59.8899C185.2 59.8899 217.83 37.4799 209.58 18.9999H209.59Z" fill="#D87159"/>
<path d="M151.22 24.9599C151.22 24.9599 158.29 9.0399 167.14 24.0799C167.14 24.0799 159.62 32.0399 151.22 24.9599Z" fill="white"/>
<path d="M167.6 79.5899C167.6 79.5899 164.17 94.3999 181.22 94.5699C198.27 94.7399 212.43 82.8399 206.62 75.6199H185.94L167.59 79.5899H167.6Z" fill="#D87159"/>
<path d="M144.09 41.83C143.9 41.83 143.72 41.82 143.55 41.8C143.32 41.77 143.15 41.56 143.18 41.32C143.21 41.09 143.42 40.92 143.66 40.95C146.31 41.29 151.53 38.31 151.58 38.28C151.78 38.16 152.04 38.23 152.16 38.44C152.28 38.64 152.21 38.9 152 39.02C151.79 39.14 147.08 41.83 144.09 41.83Z" fill="black"/>
<path d="M157.45 12.0399C157.45 12.0399 166.35 13.0999 168.31 16.2399C168.31 16.2399 163.74 7.91987 157.45 12.0399V12.0399Z" fill="#000300"/>
<path d="M209.59 18.9999C201.34 0.519907 178.14 -2.66009 162.81 1.78991C159.48 2.75991 149.54 2.43991 152.23 5.40991C158.44 12.2699 174.22 4.84991 174.22 4.84991C168.72 28.0499 181.69 36.6999 181.69 36.6999L182.77 51.4299L192.45 57.9999C202.93 55.3499 216.27 33.9399 209.6 19.0099L209.59 18.9999Z" fill="#000300"/>
<path d="M151.22 24.9598C152.95 26.4198 155.58 27.8298 157.56 27.8398C159.94 27.5598 162 25.0398 162.18 22.4898C162.32 20.6398 161.29 18.0098 159.92 17.6598C154.22 16.8498 151.22 24.9698 151.22 24.9698V24.9598Z" fill="black"/>
<path d="M181.68 36.6899C181.68 36.6899 191.51 32.3699 193.08 40.2299C194.65 48.0899 183.47 55.4899 177.27 48.8399C171.06 42.1899 181.68 36.6899 181.68 36.6899Z" fill="#D87159"/>
<path d="M180.13 43.89C180.02 43.89 179.91 43.85 179.83 43.76C179.67 43.59 179.67 43.32 179.83 43.16C183 40.05 185.74 39.53 187.47 39.64C189.39 39.76 190.53 40.65 190.58 40.68C190.76 40.83 190.8 41.09 190.65 41.28C190.51 41.46 190.24 41.5 190.05 41.35C189.89 41.22 185.98 38.31 180.41 43.77C180.33 43.85 180.22 43.89 180.11 43.89H180.13Z" fill="black"/>
<path d="M185.23 47.34C185.07 47.34 184.91 47.25 184.84 47.09L182.37 41.55C182.27 41.34 182.37 41.08 182.58 40.99C182.79 40.89 183.05 40.99 183.14 41.2L185.61 46.74C185.71 46.95 185.61 47.21 185.4 47.3C185.34 47.32 185.29 47.34 185.23 47.34V47.34Z" fill="black"/>
<path d="M165.66 59.99C165.66 59.99 171.28 59.68 174.68 57.98L169.16 66.48L165.66 59.99Z" fill="black"/>
<path d="M178.53 83.8999C178.38 83.8999 178.23 83.8199 178.16 83.6799L174.31 76.6599C174.2 76.4499 174.27 76.1999 174.48 76.0799C174.69 75.9699 174.94 76.0399 175.06 76.2499L178.91 83.2699C179.02 83.4799 178.95 83.7299 178.74 83.8499C178.68 83.8899 178.61 83.8999 178.54 83.8999H178.53Z" fill="black"/>
<path d="M130.72 218.62C139.286 218.62 146.23 206.442 146.23 191.42C146.23 176.398 139.286 164.22 130.72 164.22C122.154 164.22 115.21 176.398 115.21 191.42C115.21 206.442 122.154 218.62 130.72 218.62Z" fill="black"/>
<path d="M185.95 218.4H290.06L336.37 135.54H232.26L185.95 218.4Z" fill="#57C6CD"/>
<g opacity="0.7">
<path d="M280.01 182.77C277.46 187.26 261.46 196.55 258.64 194.95C255.83 193.35 255.61 188.41 258.17 183.93C260.72 179.44 276.72 170.15 279.54 171.75C282.35 173.35 282.57 178.29 280.01 182.77Z" fill="white"/>
</g>
<path d="M128.98 164.4C128.87 163.94 128.42 163.66 127.96 163.76C127.59 163.85 91.83 172.22 63.8 188.5L62.36 191.33C90.46 174.29 127.96 165.51 128.35 165.42C128.81 165.31 129.09 164.86 128.99 164.4H128.98Z" fill="black"/>
<path d="M123.53 167.45C123.53 167.45 142.56 147.01 170.26 144.93C190.59 143.4 199.24 146.79 203.42 149.53C205.25 150.73 205.73 153.21 204.5 155.03C203.37 156.69 201.24 157.33 199.38 156.57C194.06 154.4 183 150.68 174.35 153.16C162.52 156.55 140.14 165.27 140.14 165.27L123.53 167.45Z" fill="#D87159"/>
<path d="M197.94 156C197.94 156 178.51 144.67 164.49 152.75L197.94 156V156Z" fill="black"/>
<path d="M160.36 153.52C160.36 153.52 184.76 143.07 203.02 161.65C204.28 162.93 204.16 165.02 202.75 166.13L202.7 166.17C200.75 167.71 198.05 167.81 195.96 166.47C190.85 163.17 180.51 157.99 169.62 161.27C154.24 165.9 142.31 167.83 142.31 167.83L160.35 153.52H160.36Z" fill="#D87159"/>
<path d="M160.73 160.32C176.31 153.15 186.28 163.28 186.28 163.28L160.73 160.32Z" fill="black"/>
<path d="M159.34 159.56C159.34 159.56 184.46 156.54 191.2 181.14C191.62 182.66 190.44 184.16 188.86 184.12C186.72 184.06 184.75 182.94 183.6 181.13C180.28 175.93 171.95 165.75 158.55 167.73C140.71 170.38 132.48 170.99 132.48 170.99L136.97 160.81L159.34 159.56V159.56Z" fill="#D87159"/>
<path d="M180.65 178.61C180.65 178.61 175.18 162.73 158.24 165.42C158.24 165.42 175.56 169.2 180.65 178.61Z" fill="black"/>
<path d="M178.94 185.66C178.6 185.72 178.26 185.75 177.92 185.75C176.26 185.75 174.67 185.03 173.58 183.74C170.27 179.82 163.45 172.88 157.62 174.41C152.75 175.68 151.39 179.2 145.32 182.19C141.37 184.13 135.42 185.85 125.22 186.58C121.51 186.84 118.24 186.99 115.42 187.06C116.54 174.84 122.3 165.34 129.44 164.31L132.72 164.44L158.46 165.43C158.46 165.43 174.4 165.86 180.99 181.97C181.64 183.56 180.65 185.36 178.95 185.67L178.94 185.66Z" fill="#D87159"/>
<path d="M145.32 182.2C141.37 184.14 135.42 185.86 125.22 186.59C121.51 186.85 118.24 187 115.42 187.07C116.54 174.85 122.3 165.35 129.44 164.32C129.86 164.26 130.3 164.23 130.73 164.23C131.41 164.23 132.07 164.31 132.72 164.45C138.56 165.76 143.39 172.77 145.32 182.2V182.2Z" fill="#D87159"/>
<path d="M199.78 149.55C199.48 148.79 199.72 148.07 199.92 147.68C199.67 147.57 199.4 147.47 199.13 147.36C198.87 147.9 198.59 148.84 198.99 149.86C199.62 151.46 201.69 152.59 205.13 153.21C205.15 153.21 205.16 153.21 205.18 153.21C205.21 152.92 205.2 152.63 205.17 152.35C201.38 151.65 200.15 150.44 199.79 149.56L199.78 149.55Z" fill="black"/>
<path d="M203.87 163.43C203.84 163.13 203.76 162.84 203.64 162.56C202.83 163.26 201.53 162.56 200.56 161.81C199.54 161.03 199.02 160.29 199.05 159.68C199.08 159.1 199.62 158.76 199.63 158.76C199.67 158.73 199.71 158.7 199.74 158.66C199.51 158.48 199.29 158.3 199.06 158.12C198.8 158.31 198.26 158.81 198.21 159.62C198.15 160.54 198.77 161.51 200.05 162.48C201.24 163.39 202.16 163.7 202.86 163.7C203.28 163.7 203.62 163.59 203.89 163.43H203.87Z" fill="black"/>
<path d="M191.23 182.23C191.05 182.25 190.86 182.25 190.66 182.22C189.85 182.06 189.24 181.33 188.9 180.1C188.68 179.32 188.71 178.68 189 178.21C189.31 177.7 189.83 177.52 189.98 177.47C189.88 177.2 189.77 176.94 189.66 176.68C189.34 176.79 188.69 177.08 188.28 177.75C187.87 178.43 187.8 179.29 188.08 180.32C188.63 182.29 189.7 182.89 190.5 183.05C190.62 183.07 190.74 183.08 190.86 183.09C191.04 182.83 191.17 182.54 191.23 182.23V182.23Z" fill="black"/>
<path d="M180.22 183.21C179.55 183.03 178.99 182.35 178.58 181.2C178.26 180.33 178.24 179.63 178.49 179.1C178.71 178.65 179.09 178.45 179.23 178.39C179.09 178.14 178.94 177.89 178.8 177.66C178.51 177.8 178.04 178.11 177.74 178.7C177.37 179.44 177.38 180.38 177.78 181.48C178.3 182.9 179.04 183.76 180 184.02C180.21 184.08 180.42 184.1 180.62 184.1C180.73 184.1 180.84 184.09 180.95 184.07C181.08 183.78 181.16 183.47 181.18 183.15C180.89 183.24 180.56 183.28 180.22 183.19V183.21Z" fill="black"/>
<path d="M245.4 110.33C245.54 110.43 245.71 110.47 245.87 110.47C246.15 110.47 246.42 110.34 246.58 110.09L261.15 87.96C260.81 87.46 260.45 86.97 260.08 86.5L245.16 109.15C244.9 109.54 245.01 110.07 245.4 110.33V110.33Z" fill="black"/>
<path d="M110.09 99.8198C110.09 99.8198 110.16 99.8698 110.19 99.8898C119.8 105.31 125.59 134.97 125.65 135.27C125.73 135.68 126.08 135.96 126.48 135.96C126.53 135.96 126.59 135.96 126.64 135.94C127.1 135.85 127.4 135.41 127.31 134.95C127.3 134.87 125.82 127.23 123.12 119C119.52 107.98 115.52 101.1 111.23 98.5398C110.84 98.9598 110.46 99.3898 110.08 99.8198H110.09Z" fill="black"/>
</g>
<defs>
<clipPath id="clip0_18_4894">
<rect width="359" height="183" fill="white"/>
</clipPath>
</defs>
</svg>
